{
	"asset":{
		"generator":"Khronos glTF Blender I/O v4.3.47",
		"version":"2.0"
	},
	"scene":0,
	"scenes":[
		{
			"name":"Scene",
			"nodes":[
				2
			]
		}
	],
	"nodes":[
		{
			"mesh":0,
			"name":"Cushion",
			"scale":[
				0.2515072226524353,
				0.2515072226524353,
				0.2515072226524353
			],
			"translation":[
				0,
				0.5387913584709167,
				0
			]
		},
		{
			"mesh":1,
			"name":"Handle",
			"scale":[
				0.2515072226524353,
				0.2515072226524353,
				0.2515072226524353
			],
			"translation":[
				-0.005352045875042677,
				0.48443010449409485,
				0.034662842750549316
			]
		},
		{
			"children":[
				0,
				1
			],
			"mesh":2,
			"name":"BarChair"
		}
	],
	"materials":[
		{
			"doubleSided":true,
			"name":"BarChairMat",
			"pbrMetallicRoughness":{
				"baseColorTexture":{
					"index":0
				},
				"metallicRoughnessTexture":{
					"index":1
				}
			}
		}
	],
	"meshes":[
		{
			"name":"BarChairCushion",
			"primitives":[
				{
					"attributes":{
						"POSITION":0,
						"NORMAL":1,
						"TEXCOORD_0":2
					},
					"indices":3,
					"material":0
				}
			]
		},
		{
			"name":"BarChairHandle",
			"primitives":[
				{
					"attributes":{
						"POSITION":4,
						"NORMAL":5,
						"TEXCOORD_0":6,
						"COLOR_0":7,
						"COLOR_1":8
					},
					"indices":9,
					"material":0
				}
			]
		},
		{
			"name":"BarChairBase",
			"primitives":[
				{
					"attributes":{
						"POSITION":10,
						"NORMAL":11,
						"TEXCOORD_0":12,
						"COLOR_0":13,
						"COLOR_1":14
					},
					"indices":15,
					"material":0
				}
			]
		}
	],
	"textures":[
		{
			"sampler":0,
			"source":0
		},
		{
			"sampler":0,
			"source":1
		}
	],
	"images":[
		{
			"mimeType":"image/png",
			"name":"Ucupaint BarChairMat Color",
			"uri":"Ucupaint%20BarChairMat%20Color.png"
		},
		{
			"mimeType":"image/png",
			"name":"Ucupaint BarChairMat Metallic-Ucupaint BarChairMat Roughness",
			"uri":"Ucupaint%20BarChairMat%20Metallic-Ucupaint%20BarChairMat%20Roughness.png"
		}
	],
	"accessors":[
		{
			"bufferView":0,
			"componentType":5126,
			"count":144,
			"max":[
				0.8197914958000183,
				0.21475791931152344,
				0.8197913765907288
			],
			"min":[
				-0.8197913765907288,
				-4.76837158203125e-07,
				-0.8197914361953735
			],
			"type":"VEC3"
		},
		{
			"bufferView":1,
			"componentType":5126,
			"count":144,
			"type":"VEC3"
		},
		{
			"bufferView":2,
			"componentType":5126,
			"count":144,
			"type":"VEC2"
		},
		{
			"bufferView":3,
			"componentType":5123,
			"count":756,
			"type":"SCALAR"
		},
		{
			"bufferView":4,
			"componentType":5126,
			"count":40,
			"max":[
				0.03627313673496246,
				0.024258971214294434,
				0.5942073464393616
			],
			"min":[
				-0.03627314046025276,
				-0.26850974559783936,
				-0.009742841124534607
			],
			"type":"VEC3"
		},
		{
			"bufferView":5,
			"componentType":5126,
			"count":40,
			"type":"VEC3"
		},
		{
			"bufferView":6,
			"componentType":5126,
			"count":40,
			"type":"VEC2"
		},
		{
			"bufferView":7,
			"componentType":5121,
			"count":40,
			"normalized":true,
			"type":"VEC4"
		},
		{
			"bufferView":8,
			"componentType":5123,
			"count":40,
			"normalized":true,
			"type":"VEC4"
		},
		{
			"bufferView":9,
			"componentType":5123,
			"count":168,
			"type":"SCALAR"
		},
		{
			"bufferView":10,
			"componentType":5126,
			"count":413,
			"max":[
				0.2150755226612091,
				0.5628876686096191,
				0.2150755226612091
			],
			"min":[
				-0.2150755226612091,
				0.0032757092267274857,
				-0.2150755226612091
			],
			"type":"VEC3"
		},
		{
			"bufferView":11,
			"componentType":5126,
			"count":413,
			"type":"VEC3"
		},
		{
			"bufferView":12,
			"componentType":5126,
			"count":413,
			"type":"VEC2"
		},
		{
			"bufferView":13,
			"componentType":5121,
			"count":413,
			"normalized":true,
			"type":"VEC4"
		},
		{
			"bufferView":14,
			"componentType":5123,
			"count":413,
			"normalized":true,
			"type":"VEC4"
		},
		{
			"bufferView":15,
			"componentType":5123,
			"count":1482,
			"type":"SCALAR"
		}
	],
	"bufferViews":[
		{
			"buffer":0,
			"byteLength":1728,
			"byteOffset":0,
			"target":34962
		},
		{
			"buffer":0,
			"byteLength":1728,
			"byteOffset":1728,
			"target":34962
		},
		{
			"buffer":0,
			"byteLength":1152,
			"byteOffset":3456,
			"target":34962
		},
		{
			"buffer":0,
			"byteLength":1512,
			"byteOffset":4608,
			"target":34963
		},
		{
			"buffer":0,
			"byteLength":480,
			"byteOffset":6120,
			"target":34962
		},
		{
			"buffer":0,
			"byteLength":480,
			"byteOffset":6600,
			"target":34962
		},
		{
			"buffer":0,
			"byteLength":320,
			"byteOffset":7080,
			"target":34962
		},
		{
			"buffer":0,
			"byteLength":160,
			"byteOffset":7400,
			"target":34962
		},
		{
			"buffer":0,
			"byteLength":320,
			"byteOffset":7560,
			"target":34962
		},
		{
			"buffer":0,
			"byteLength":336,
			"byteOffset":7880,
			"target":34963
		},
		{
			"buffer":0,
			"byteLength":4956,
			"byteOffset":8216,
			"target":34962
		},
		{
			"buffer":0,
			"byteLength":4956,
			"byteOffset":13172,
			"target":34962
		},
		{
			"buffer":0,
			"byteLength":3304,
			"byteOffset":18128,
			"target":34962
		},
		{
			"buffer":0,
			"byteLength":1652,
			"byteOffset":21432,
			"target":34962
		},
		{
			"buffer":0,
			"byteLength":3304,
			"byteOffset":23084,
			"target":34962
		},
		{
			"buffer":0,
			"byteLength":2964,
			"byteOffset":26388,
			"target":34963
		}
	],
	"samplers":[
		{
			"magFilter":9729,
			"minFilter":9987
		}
	],
	"buffers":[
		{
			"byteLength":29352,
			"uri":"barstool1.bin"
		}
	]
}
