{
	"asset":{
		"generator":"Khronos glTF Blender I/O v3.6.27",
		"version":"2.0"
	},
	"scene":0,
	"scenes":[
		{
			"name":"Scene",
			"nodes":[
				2
			]
		}
	],
	"nodes":[
		{
			"mesh":0,
			"name":"RadioAntennae",
			"translation":[
				-0.07404433935880661,
				0.9499591588973999,
				-0.7338109016418457
			]
		},
		{
			"mesh":1,
			"name":"RadioHandle",
			"translation":[
				0,
				0.7616648077964783,
				0
			]
		},
		{
			"children":[
				0,
				1
			],
			"mesh":2,
			"name":"Radio"
		}
	],
	"meshes":[
		{
			"extras":{
				"targetNames":[
					"Telescopic_Middle",
					"Telescopic_Upper"
				]
			},
			"name":"Cube.003",
			"primitives":[
				{
					"attributes":{
						"POSITION":0,
						"NORMAL":1,
						"TEXCOORD_0":2
					},
					"indices":3,
					"targets":[
						{
							"POSITION":4,
							"NORMAL":5
						},
						{
							"POSITION":6,
							"NORMAL":7
						}
					]
				}
			],
			"weights":[
				0,
				0
			]
		},
		{
			"name":"Cube.004",
			"primitives":[
				{
					"attributes":{
						"POSITION":8,
						"NORMAL":9,
						"TEXCOORD_0":10
					},
					"indices":11
				}
			]
		},
		{
			"extras":{
				"targetNames":[
					"btn_1_down",
					"btn_2_down",
					"btn_3_down",
					"btn_4_down",
					"btn_5_down"
				]
			},
			"name":"Cube.001",
			"primitives":[
				{
					"attributes":{
						"POSITION":12,
						"NORMAL":13,
						"TEXCOORD_0":14
					},
					"indices":15,
					"targets":[
						{
							"POSITION":16,
							"NORMAL":17
						},
						{
							"POSITION":18,
							"NORMAL":19
						},
						{
							"POSITION":20,
							"NORMAL":21
						},
						{
							"POSITION":22,
							"NORMAL":23
						},
						{
							"POSITION":24,
							"NORMAL":25
						}
					]
				}
			],
			"weights":[
				0,
				0,
				0,
				0,
				0
			]
		}
	],
	"accessors":[
		{
			"bufferView":0,
			"componentType":5126,
			"count":118,
			"max":[
				0.018515542149543762,
				0.3690699338912964,
				0.01936650276184082
			],
			"min":[
				-0.018515564501285553,
				-0.021085143089294434,
				-0.01936650276184082
			],
			"type":"VEC3"
		},
		{
			"bufferView":1,
			"componentType":5126,
			"count":118,
			"type":"VEC3"
		},
		{
			"bufferView":2,
			"componentType":5126,
			"count":118,
			"type":"VEC2"
		},
		{
			"bufferView":3,
			"componentType":5123,
			"count":216,
			"type":"SCALAR"
		},
		{
			"bufferView":4,
			"componentType":5126,
			"count":118,
			"max":[
				0,
				0.21671593189239502,
				0
			],
			"min":[
				0,
				0,
				0
			],
			"type":"VEC3"
		},
		{
			"bufferView":5,
			"componentType":5126,
			"count":118,
			"type":"VEC3"
		},
		{
			"bufferView":6,
			"componentType":5126,
			"count":118,
			"max":[
				0,
				0.21751153469085693,
				0
			],
			"min":[
				0,
				0,
				0
			],
			"type":"VEC3"
		},
		{
			"bufferView":7,
			"componentType":5126,
			"count":118,
			"type":"VEC3"
		},
		{
			"bufferView":8,
			"componentType":5126,
			"count":225,
			"max":[
				0.04467373713850975,
				0.41093939542770386,
				0.8623916506767273
			],
			"min":[
				-0.04467373713850975,
				-0.051584839820861816,
				-0.8623916506767273
			],
			"type":"VEC3"
		},
		{
			"bufferView":9,
			"componentType":5126,
			"count":225,
			"type":"VEC3"
		},
		{
			"bufferView":10,
			"componentType":5126,
			"count":225,
			"type":"VEC2"
		},
		{
			"bufferView":11,
			"componentType":5123,
			"count":468,
			"type":"SCALAR"
		},
		{
			"bufferView":12,
			"componentType":5126,
			"count":1356,
			"max":[
				0.19652174413204193,
				0.9546535611152649,
				0.8327493667602539
			],
			"min":[
				-0.15314343571662903,
				0.004000067710876465,
				-0.8278303146362305
			],
			"type":"VEC3"
		},
		{
			"bufferView":13,
			"componentType":5126,
			"count":1356,
			"type":"VEC3"
		},
		{
			"bufferView":14,
			"componentType":5126,
			"count":1356,
			"type":"VEC2"
		},
		{
			"bufferView":15,
			"componentType":5123,
			"count":2754,
			"type":"SCALAR"
		},
		{
			"bufferView":16,
			"componentType":5126,
			"count":1356,
			"max":[
				1.4901161193847656e-08,
				5.960464477539063e-08,
				0
			],
			"min":[
				-1.4901161193847656e-08,
				-0.02908986806869507,
				-2.9802322387695312e-08
			],
			"type":"VEC3"
		},
		{
			"bufferView":17,
			"componentType":5126,
			"count":1356,
			"type":"VEC3"
		},
		{
			"bufferView":18,
			"componentType":5126,
			"count":1356,
			"max":[
				1.4901161193847656e-08,
				5.960464477539063e-08,
				0
			],
			"min":[
				-1.4901161193847656e-08,
				-0.02908986806869507,
				-2.9802322387695312e-08
			],
			"type":"VEC3"
		},
		{
			"bufferView":19,
			"componentType":5126,
			"count":1356,
			"type":"VEC3"
		},
		{
			"bufferView":20,
			"componentType":5126,
			"count":1356,
			"max":[
				1.4901161193847656e-08,
				5.960464477539063e-08,
				0
			],
			"min":[
				-1.4901161193847656e-08,
				-0.02908986806869507,
				-2.9802322387695312e-08
			],
			"type":"VEC3"
		},
		{
			"bufferView":21,
			"componentType":5126,
			"count":1356,
			"type":"VEC3"
		},
		{
			"bufferView":22,
			"componentType":5126,
			"count":1356,
			"max":[
				1.4901161193847656e-08,
				5.960464477539063e-08,
				0
			],
			"min":[
				-1.4901161193847656e-08,
				-0.02908986806869507,
				-2.9802322387695312e-08
			],
			"type":"VEC3"
		},
		{
			"bufferView":23,
			"componentType":5126,
			"count":1356,
			"type":"VEC3"
		},
		{
			"bufferView":24,
			"componentType":5126,
			"count":1356,
			"max":[
				1.4901161193847656e-08,
				5.960464477539063e-08,
				0
			],
			"min":[
				-1.4901161193847656e-08,
				-0.02908986806869507,
				-2.9802322387695312e-08
			],
			"type":"VEC3"
		},
		{
			"bufferView":25,
			"componentType":5126,
			"count":1356,
			"type":"VEC3"
		}
	],
	"bufferViews":[
		{
			"buffer":0,
			"byteLength":1416,
			"byteOffset":0,
			"target":34962
		},
		{
			"buffer":0,
			"byteLength":1416,
			"byteOffset":1416,
			"target":34962
		},
		{
			"buffer":0,
			"byteLength":944,
			"byteOffset":2832,
			"target":34962
		},
		{
			"buffer":0,
			"byteLength":432,
			"byteOffset":3776,
			"target":34963
		},
		{
			"buffer":0,
			"byteLength":1416,
			"byteOffset":4208,
			"target":34962
		},
		{
			"buffer":0,
			"byteLength":1416,
			"byteOffset":5624,
			"target":34962
		},
		{
			"buffer":0,
			"byteLength":1416,
			"byteOffset":7040,
			"target":34962
		},
		{
			"buffer":0,
			"byteLength":1416,
			"byteOffset":8456,
			"target":34962
		},
		{
			"buffer":0,
			"byteLength":2700,
			"byteOffset":9872,
			"target":34962
		},
		{
			"buffer":0,
			"byteLength":2700,
			"byteOffset":12572,
			"target":34962
		},
		{
			"buffer":0,
			"byteLength":1800,
			"byteOffset":15272,
			"target":34962
		},
		{
			"buffer":0,
			"byteLength":936,
			"byteOffset":17072,
			"target":34963
		},
		{
			"buffer":0,
			"byteLength":16272,
			"byteOffset":18008,
			"target":34962
		},
		{
			"buffer":0,
			"byteLength":16272,
			"byteOffset":34280,
			"target":34962
		},
		{
			"buffer":0,
			"byteLength":10848,
			"byteOffset":50552,
			"target":34962
		},
		{
			"buffer":0,
			"byteLength":5508,
			"byteOffset":61400,
			"target":34963
		},
		{
			"buffer":0,
			"byteLength":16272,
			"byteOffset":66908,
			"target":34962
		},
		{
			"buffer":0,
			"byteLength":16272,
			"byteOffset":83180,
			"target":34962
		},
		{
			"buffer":0,
			"byteLength":16272,
			"byteOffset":99452,
			"target":34962
		},
		{
			"buffer":0,
			"byteLength":16272,
			"byteOffset":115724,
			"target":34962
		},
		{
			"buffer":0,
			"byteLength":16272,
			"byteOffset":131996,
			"target":34962
		},
		{
			"buffer":0,
			"byteLength":16272,
			"byteOffset":148268,
			"target":34962
		},
		{
			"buffer":0,
			"byteLength":16272,
			"byteOffset":164540,
			"target":34962
		},
		{
			"buffer":0,
			"byteLength":16272,
			"byteOffset":180812,
			"target":34962
		},
		{
			"buffer":0,
			"byteLength":16272,
			"byteOffset":197084,
			"target":34962
		},
		{
			"buffer":0,
			"byteLength":16272,
			"byteOffset":213356,
			"target":34962
		}
	],
	"buffers":[
		{
			"byteLength":229628,
			"uri":"data:application/octet-stream;base64,"
		}
	]
}
