{
    "asset" : {
        "generator" : "Khronos glTF Blender I/O v1.8.19",
        "version" : "2.0"
    },
    "scene" : 0,
    "scenes" : [
        {
            "name" : "Scene",
            "nodes" : [
                4
            ]
        }
    ],
    "nodes" : [
        {
            "name" : "pump",
            "translation" : [
                7.340412616729736,
                0.33733484148979187,
                -0.03715759515762329
            ]
        },
        {
            "children" : [
                0
            ],
            "name" : "root",
            "translation" : [
                -0.11682021617889404,
                -0.1971001923084259,
                0.7403362393379211
            ]
        },
        {
            "mesh" : 0,
            "name" : "pump",
            "skin" : 0
        },
        {
            "mesh" : 1,
            "name" : "shotgunModel",
            "skin" : 0
        },
        {
            "children" : [
                2,
                3,
                1
            ],
            "name" : "shotgunSkel",
            "translation" : [
                -3.473412036895752,
                0.32544779777526855,
                -0.7043523788452148
            ]
        }
    ],
    "materials" : [
        {
            "doubleSided" : true,
            "name" : "pumpTexture",
            "pbrMetallicRoughness" : {
                "baseColorTexture" : {
                    "index" : 0
                },
                "metallicFactor" : 0,
                "roughnessFactor" : 0.5
            }
        },
        {
            "name" : "shotgunTexture",
            "pbrMetallicRoughness" : {
                "baseColorTexture" : {
                    "index" : 1
                },
                "metallicFactor" : 0,
                "roughnessFactor" : 0.5
            }
        }
    ],
    "meshes" : [
        {
            "name" : "pump",
            "primitives" : [
                {
                    "attributes" : {
                        "POSITION" : 0,
                        "NORMAL" : 1,
                        "TEXCOORD_0" : 2,
                        "JOINTS_0" : 3,
                        "WEIGHTS_0" : 4
                    },
                    "indices" : 5,
                    "material" : 0
                }
            ]
        },
        {
            "name" : "shotgunModel",
            "primitives" : [
                {
                    "attributes" : {
                        "POSITION" : 7,
                        "NORMAL" : 8,
                        "TEXCOORD_0" : 9,
                        "JOINTS_0" : 10,
                        "WEIGHTS_0" : 11
                    },
                    "indices" : 12,
                    "material" : 1
                }
            ]
        }
    ],
    "textures" : [
        {
            "sampler" : 0,
            "source" : 0
        },
        {
            "sampler" : 0,
            "source" : 1
        }
    ],
    "images" : [
        {
            "bufferView" : 6,
            "mimeType" : "image/png",
            "name" : "pumpDiffuse"
        },
        {
            "bufferView" : 14,
            "mimeType" : "image/png",
            "name" : "shotgunDiffuse"
        }
    ],
    "skins" : [
        {
            "inverseBindMatrices" : 6,
            "joints" : [
                1,
                0
            ],
            "name" : "shotgunSkel"
        }
    ],
    "accessors" : [
        {
            "bufferView" : 0,
            "componentType" : 5126,
            "count" : 271,
            "max" : [
                5.165402412414551,
                1.358945608139038,
                0.2364889234304428
            ],
            "min" : [
                -0.5977745056152344,
                0.45292869210243225,
                -0.23566147685050964
            ],
            "type" : "VEC3"
        },
        {
            "bufferView" : 1,
            "componentType" : 5126,
            "count" : 271,
            "type" : "VEC3"
        },
        {
            "bufferView" : 2,
            "componentType" : 5126,
            "count" : 271,
            "type" : "VEC2"
        },
        {
            "bufferView" : 3,
            "componentType" : 5121,
            "count" : 271,
            "type" : "VEC4"
        },
        {
            "bufferView" : 4,
            "componentType" : 5126,
            "count" : 271,
            "type" : "VEC4"
        },
        {
            "bufferView" : 5,
            "componentType" : 5123,
            "count" : 654,
            "type" : "SCALAR"
        },
        {
            "bufferView" : 7,
            "componentType" : 5126,
            "count" : 2,
            "type" : "MAT4"
        },
        {
            "bufferView" : 8,
            "componentType" : 5126,
            "count" : 2588,
            "max" : [
                8.605399131774902,
                1.4709314107894897,
                0.23169447481632233
            ],
            "min" : [
                -8.777287483215332,
                -1.8915059566497803,
                -0.23381675779819489
            ],
            "type" : "VEC3"
        },
        {
            "bufferView" : 9,
            "componentType" : 5126,
            "count" : 2588,
            "type" : "VEC3"
        },
        {
            "bufferView" : 10,
            "componentType" : 5126,
            "count" : 2588,
            "type" : "VEC2"
        },
        {
            "bufferView" : 11,
            "componentType" : 5121,
            "count" : 2588,
            "type" : "VEC4"
        },
        {
            "bufferView" : 12,
            "componentType" : 5126,
            "count" : 2588,
            "type" : "VEC4"
        },
        {
            "bufferView" : 13,
            "componentType" : 5123,
            "count" : 7044,
            "type" : "SCALAR"
        }
    ],
    "bufferViews" : [
        {
            "buffer" : 0,
            "byteLength" : 3252,
            "byteOffset" : 0
        },
        {
            "buffer" : 0,
            "byteLength" : 3252,
            "byteOffset" : 3252
        },
        {
            "buffer" : 0,
            "byteLength" : 2168,
            "byteOffset" : 6504
        },
        {
            "buffer" : 0,
            "byteLength" : 1084,
            "byteOffset" : 8672
        },
        {
            "buffer" : 0,
            "byteLength" : 4336,
            "byteOffset" : 9756
        },
        {
            "buffer" : 0,
            "byteLength" : 1308,
            "byteOffset" : 14092
        },
        {
            "buffer" : 0,
            "byteLength" : 826620,
            "byteOffset" : 15400
        },
        {
            "buffer" : 0,
            "byteLength" : 128,
            "byteOffset" : 842020
        },
        {
            "buffer" : 0,
            "byteLength" : 31056,
            "byteOffset" : 842148
        },
        {
            "buffer" : 0,
            "byteLength" : 31056,
            "byteOffset" : 873204
        },
        {
            "buffer" : 0,
            "byteLength" : 20704,
            "byteOffset" : 904260
        },
        {
            "buffer" : 0,
            "byteLength" : 10352,
            "byteOffset" : 924964
        },
        {
            "buffer" : 0,
            "byteLength" : 41408,
            "byteOffset" : 935316
        },
        {
            "buffer" : 0,
            "byteLength" : 14088,
            "byteOffset" : 976724
        },
        {
            "buffer" : 0,
            "byteLength" : 841385,
            "byteOffset" : 990812
        }
    ],
    "samplers" : [
        {
            "magFilter" : 9729,
            "minFilter" : 9987
        }
    ],
    "buffers" : [
        {
            "byteLength" : 1832200,
            "uri" : "data:application/octet-stream;base64,"
        }
    ]
}
