{
	"asset":{
		"generator":"Khronos glTF Blender I/O v4.3.47",
		"version":"2.0"
	},
	"scene":0,
	"scenes":[
		{
			"name":"Scene",
			"nodes":[
				0,
				1,
				2
			]
		}
	],
	"nodes":[
		{
			"mesh":0,
			"name":"WallTrimFloorSide"
		},
		{
			"mesh":1,
			"name":"WallTrimCorner",
			"translation":[
				0,
				0,
				-0.48739495873451233
			]
		},
		{
			"mesh":2,
			"name":"WallTrimFloorEdge",
			"translation":[
				0,
				0,
				0.46359315514564514
			]
		}
	],
	"meshes":[
		{
			"extras":{
				"targetNames":[
					"extendLeft",
					"extendRight"
				]
			},
			"name":"side",
			"primitives":[
				{
					"attributes":{
						"POSITION":0,
						"NORMAL":1,
						"TEXCOORD_0":2
					},
					"indices":3,
					"targets":[
						{
							"POSITION":4,
							"NORMAL":5
						},
						{
							"POSITION":6,
							"NORMAL":7
						}
					]
				}
			],
			"weights":[
				0,
				0
			]
		},
		{
			"name":"corner",
			"primitives":[
				{
					"attributes":{
						"POSITION":8,
						"NORMAL":9,
						"TEXCOORD_0":10
					},
					"indices":11
				}
			]
		},
		{
			"name":"edge",
			"primitives":[
				{
					"attributes":{
						"POSITION":12,
						"NORMAL":13,
						"TEXCOORD_0":14
					},
					"indices":15
				}
			]
		}
	],
	"accessors":[
		{
			"bufferView":0,
			"componentType":5126,
			"count":60,
			"max":[
				0.026590855792164803,
				0.0987466350197792,
				0.1691049039363861
			],
			"min":[
				0,
				0,
				-0.16907501220703125
			],
			"type":"VEC3"
		},
		{
			"bufferView":1,
			"componentType":5126,
			"count":60,
			"type":"VEC3"
		},
		{
			"bufferView":2,
			"componentType":5126,
			"count":60,
			"type":"VEC2"
		},
		{
			"bufferView":3,
			"componentType":5123,
			"count":138,
			"type":"SCALAR"
		},
		{
			"componentType":5126,
			"count":60,
			"max":[
				0,
				0,
				0
			],
			"min":[
				0,
				0,
				-0.019999995827674866
			],
			"sparse":{
				"count":20,
				"indices":{
					"bufferView":4,
					"componentType":5121
				},
				"values":{
					"bufferView":5
				}
			},
			"type":"VEC3"
		},
		{
			"componentType":5126,
			"count":60,
			"sparse":{
				"count":36,
				"indices":{
					"bufferView":6,
					"componentType":5121
				},
				"values":{
					"bufferView":7
				}
			},
			"type":"VEC3"
		},
		{
			"componentType":5126,
			"count":60,
			"max":[
				0,
				0,
				0.019999995827674866
			],
			"min":[
				0,
				0,
				0
			],
			"sparse":{
				"count":20,
				"indices":{
					"bufferView":8,
					"componentType":5121
				},
				"values":{
					"bufferView":9
				}
			},
			"type":"VEC3"
		},
		{
			"componentType":5126,
			"count":60,
			"sparse":{
				"count":36,
				"indices":{
					"bufferView":10,
					"componentType":5121
				},
				"values":{
					"bufferView":11
				}
			},
			"type":"VEC3"
		},
		{
			"bufferView":12,
			"componentType":5126,
			"count":90,
			"max":[
				0.1823853999376297,
				0.09874662756919861,
				0.1823853850364685
			],
			"min":[
				0,
				-3.725290298461914e-09,
				7.450580596923828e-09
			],
			"type":"VEC3"
		},
		{
			"bufferView":13,
			"componentType":5126,
			"count":90,
			"type":"VEC3"
		},
		{
			"bufferView":14,
			"componentType":5126,
			"count":90,
			"type":"VEC2"
		},
		{
			"bufferView":15,
			"componentType":5123,
			"count":210,
			"type":"SCALAR"
		},
		{
			"bufferView":16,
			"componentType":5126,
			"count":108,
			"max":[
				0.026590855792164803,
				0.0987466350197792,
				0.026590853929519653
			],
			"min":[
				-0.1558244675397873,
				0,
				-0.15579456090927124
			],
			"type":"VEC3"
		},
		{
			"bufferView":17,
			"componentType":5126,
			"count":108,
			"type":"VEC3"
		},
		{
			"bufferView":18,
			"componentType":5126,
			"count":108,
			"type":"VEC2"
		},
		{
			"bufferView":19,
			"componentType":5123,
			"count":288,
			"type":"SCALAR"
		}
	],
	"bufferViews":[
		{
			"buffer":0,
			"byteLength":720,
			"byteOffset":0,
			"target":34962
		},
		{
			"buffer":0,
			"byteLength":720,
			"byteOffset":720,
			"target":34962
		},
		{
			"buffer":0,
			"byteLength":480,
			"byteOffset":1440,
			"target":34962
		},
		{
			"buffer":0,
			"byteLength":276,
			"byteOffset":1920,
			"target":34963
		},
		{
			"buffer":0,
			"byteLength":20,
			"byteOffset":2196
		},
		{
			"buffer":0,
			"byteLength":240,
			"byteOffset":2216
		},
		{
			"buffer":0,
			"byteLength":36,
			"byteOffset":2456
		},
		{
			"buffer":0,
			"byteLength":432,
			"byteOffset":2492
		},
		{
			"buffer":0,
			"byteLength":20,
			"byteOffset":2924
		},
		{
			"buffer":0,
			"byteLength":240,
			"byteOffset":2944
		},
		{
			"buffer":0,
			"byteLength":36,
			"byteOffset":3184
		},
		{
			"buffer":0,
			"byteLength":432,
			"byteOffset":3220
		},
		{
			"buffer":0,
			"byteLength":1080,
			"byteOffset":3652,
			"target":34962
		},
		{
			"buffer":0,
			"byteLength":1080,
			"byteOffset":4732,
			"target":34962
		},
		{
			"buffer":0,
			"byteLength":720,
			"byteOffset":5812,
			"target":34962
		},
		{
			"buffer":0,
			"byteLength":420,
			"byteOffset":6532,
			"target":34963
		},
		{
			"buffer":0,
			"byteLength":1296,
			"byteOffset":6952,
			"target":34962
		},
		{
			"buffer":0,
			"byteLength":1296,
			"byteOffset":8248,
			"target":34962
		},
		{
			"buffer":0,
			"byteLength":864,
			"byteOffset":9544,
			"target":34962
		},
		{
			"buffer":0,
			"byteLength":576,
			"byteOffset":10408,
			"target":34963
		}
	],
	"buffers":[
		{
			"byteLength":10984,
			"uri":"interior_wall_trims.bin"
		}
	]
}
