{
    "asset" : {
        "generator" : "Khronos glTF Blender I/O v1.8.19",
        "version" : "2.0"
    },
    "scene" : 0,
    "scenes" : [
        {
            "name" : "Scene",
            "nodes" : [
                0
            ]
        }
    ],
    "nodes" : [
        {
            "mesh" : 0,
            "name" : "Cube",
            "scale" : [
                2.9541757106781006,
                2.9541757106781006,
                2.9541757106781006
            ],
            "translation" : [
                0,
                3.256819248199463,
                0
            ]
        }
    ],
    "materials" : [
        {
            "doubleSided" : true,
            "name" : "fuckle",
            "pbrMetallicRoughness" : {
                "baseColorFactor" : [
                    0.800000011920929,
                    0.800000011920929,
                    0.800000011920929,
                    1
                ],
                "metallicFactor" : 0,
                "roughnessFactor" : 0.4000000059604645
            }
        },
        {
            "doubleSided" : true,
            "name" : "booga",
            "pbrMetallicRoughness" : {
                "baseColorFactor" : [
                    0,
                    0.1844683140516281,
                    0.002306882292032242,
                    1
                ],
                "metallicFactor" : 0,
                "roughnessFactor" : 0.5
            }
        },
        {
            "doubleSided" : true,
            "name" : "poopoa",
            "pbrMetallicRoughness" : {
                "baseColorFactor" : [
                    0.0504951998591423,
                    0.029265211895108223,
                    0.8000000715255737,
                    1
                ],
                "metallicFactor" : 0,
                "roughnessFactor" : 0.5
            }
        }
    ],
    "meshes" : [
        {
            "name" : "Cube",
            "primitives" : [
                {
                    "attributes" : {
                        "POSITION" : 0,
                        "NORMAL" : 1,
                        "TEXCOORD_0" : 2
                    },
                    "indices" : 3,
                    "material" : 0
                },
                {
                    "attributes" : {
                        "POSITION" : 4,
                        "NORMAL" : 5,
                        "TEXCOORD_0" : 6
                    },
                    "indices" : 7,
                    "material" : 1
                },
                {
                    "attributes" : {
                        "POSITION" : 8,
                        "NORMAL" : 9,
                        "TEXCOORD_0" : 10
                    },
                    "indices" : 11,
                    "material" : 2
                }
            ]
        }
    ],
    "accessors" : [
        {
            "bufferView" : 0,
            "componentType" : 5126,
            "count" : 1266,
            "max" : [
                29.01844596862793,
                44.64302444458008,
                12.016732215881348
            ],
            "min" : [
                -67.663818359375,
                -1.1024460792541504,
                -46.83959197998047
            ],
            "type" : "VEC3"
        },
        {
            "bufferView" : 1,
            "componentType" : 5126,
            "count" : 1266,
            "type" : "VEC3"
        },
        {
            "bufferView" : 2,
            "componentType" : 5126,
            "count" : 1266,
            "type" : "VEC2"
        },
        {
            "bufferView" : 3,
            "componentType" : 5123,
            "count" : 2166,
            "type" : "SCALAR"
        },
        {
            "bufferView" : 4,
            "componentType" : 5126,
            "count" : 12,
            "max" : [
                27.000991821289062,
                0.934902012348175,
                10.917325973510742
            ],
            "min" : [
                -64.76901245117188,
                0.8439877033233643,
                -40.63249588012695
            ],
            "type" : "VEC3"
        },
        {
            "bufferView" : 5,
            "componentType" : 5126,
            "count" : 12,
            "type" : "VEC3"
        },
        {
            "bufferView" : 6,
            "componentType" : 5126,
            "count" : 12,
            "type" : "VEC2"
        },
        {
            "bufferView" : 7,
            "componentType" : 5123,
            "count" : 18,
            "type" : "SCALAR"
        },
        {
            "bufferView" : 8,
            "componentType" : 5126,
            "count" : 56,
            "max" : [
                -9.508975982666016,
                1,
                -15.877650260925293
            ],
            "min" : [
                -25.724040985107422,
                0.762129545211792,
                -42.312992095947266
            ],
            "type" : "VEC3"
        },
        {
            "bufferView" : 9,
            "componentType" : 5126,
            "count" : 56,
            "type" : "VEC3"
        },
        {
            "bufferView" : 10,
            "componentType" : 5126,
            "count" : 56,
            "type" : "VEC2"
        },
        {
            "bufferView" : 11,
            "componentType" : 5123,
            "count" : 84,
            "type" : "SCALAR"
        }
    ],
    "bufferViews" : [
        {
            "buffer" : 0,
            "byteLength" : 15192,
            "byteOffset" : 0
        },
        {
            "buffer" : 0,
            "byteLength" : 15192,
            "byteOffset" : 15192
        },
        {
            "buffer" : 0,
            "byteLength" : 10128,
            "byteOffset" : 30384
        },
        {
            "buffer" : 0,
            "byteLength" : 4332,
            "byteOffset" : 40512
        },
        {
            "buffer" : 0,
            "byteLength" : 144,
            "byteOffset" : 44844
        },
        {
            "buffer" : 0,
            "byteLength" : 144,
            "byteOffset" : 44988
        },
        {
            "buffer" : 0,
            "byteLength" : 96,
            "byteOffset" : 45132
        },
        {
            "buffer" : 0,
            "byteLength" : 36,
            "byteOffset" : 45228
        },
        {
            "buffer" : 0,
            "byteLength" : 672,
            "byteOffset" : 45264
        },
        {
            "buffer" : 0,
            "byteLength" : 672,
            "byteOffset" : 45936
        },
        {
            "buffer" : 0,
            "byteLength" : 448,
            "byteOffset" : 46608
        },
        {
            "buffer" : 0,
            "byteLength" : 168,
            "byteOffset" : 47056
        }
    ],
    "buffers" : [
        {
            "byteLength" : 47224,
            "uri" : "fuck.bin"
        }
    ]
}
