{
	"asset":{
		"generator":"Khronos glTF Blender I/O v4.3.47",
		"version":"2.0"
	},
	"scene":0,
	"scenes":[
		{
			"name":"Scene",
			"nodes":[
				2,
				4,
				6,
				10,
				12,
				17,
				19,
				21,
				23,
				26,
				29,
				32
			]
		}
	],
	"nodes":[
		{
			"name":"Empty.013",
			"rotation":[
				0,
				-1,
				0,
				1.9470718370939721e-07
			],
			"translation":[
				-1.4571998119354248,
				0,
				0
			]
		},
		{
			"name":"port.001",
			"rotation":[
				0,
				-1,
				0,
				1.9470718370939721e-07
			],
			"translation":[
				-1.4571998119354248,
				0,
				0
			]
		},
		{
			"children":[
				0,
				1
			],
			"mesh":0,
			"name":"AirDuct-Long"
		},
		{
			"mesh":1,
			"name":"AirductCeilingConnector"
		},
		{
			"children":[
				3
			],
			"mesh":2,
			"name":"AirductConnector"
		},
		{
			"name":"Empty.009",
			"rotation":[
				0,
				-1,
				0,
				1.9470718370939721e-07
			],
			"translation":[
				-0.48573338985443115,
				0,
				0
			]
		},
		{
			"children":[
				5
			],
			"mesh":3,
			"name":"AirDuct-Single"
		},
		{
			"name":"Empty.004"
		},
		{
			"name":"Empty.005",
			"rotation":[
				0,
				-0.7071068286895752,
				0,
				0.7071068286895752
			],
			"translation":[
				-0.27859994769096375,
				0,
				0.2786000072956085
			]
		},
		{
			"name":"Empty.006",
			"rotation":[
				0,
				0.7071068286895752,
				0,
				0.7071068286895752
			],
			"translation":[
				-0.2786000072956085,
				0,
				-0.2786000072956085
			]
		},
		{
			"children":[
				7,
				8,
				9
			],
			"mesh":4,
			"name":"AirDuct-T-Split"
		},
		{
			"name":"Empty.007",
			"rotation":[
				0,
				-0.7071065902709961,
				0,
				0.7071070671081543
			],
			"translation":[
				-0.2818570137023926,
				0,
				0.2818570137023926
			]
		},
		{
			"children":[
				11
			],
			"mesh":5,
			"name":"AirDuct-SharpBendLeft"
		},
		{
			"name":"Empty"
		},
		{
			"name":"Empty.001",
			"rotation":[
				0,
				0.7071068286895752,
				0,
				0.7071068286895752
			],
			"translation":[
				-0.2786000072956085,
				0,
				-0.2786000072956085
			]
		},
		{
			"name":"Empty.002",
			"rotation":[
				0,
				-1,
				0,
				1.6292068494294654e-07
			],
			"translation":[
				-0.557200014591217,
				0,
				0
			]
		},
		{
			"name":"Empty.003",
			"rotation":[
				0,
				-0.7071065902709961,
				0,
				0.7071069478988647
			],
			"translation":[
				-0.2786000072956085,
				0,
				0.2786000072956085
			]
		},
		{
			"children":[
				13,
				14,
				15,
				16
			],
			"mesh":6,
			"name":"AirDuct-4WaySplit"
		},
		{
			"name":"port.002",
			"rotation":[
				0,
				-0.9238794445991516,
				0,
				0.382683664560318
			],
			"translation":[
				-1.1322646141052246,
				0,
				0.468999445438385
			]
		},
		{
			"children":[
				18
			],
			"mesh":7,
			"name":"AirDuct-45-BendLeft"
		},
		{
			"name":"port",
			"rotation":[
				0,
				0.9238795638084412,
				0,
				0.3826834261417389
			],
			"translation":[
				-1.1322646141052246,
				0,
				-0.4689994752407074
			]
		},
		{
			"children":[
				20
			],
			"mesh":8,
			"name":"AirDuct-45-BendRight"
		},
		{
			"name":"Empty.008",
			"rotation":[
				0,
				0.7071067094802856,
				0,
				0.7071068286895752
			],
			"translation":[
				-0.2818570137023926,
				0,
				-0.28185704350471497
			]
		},
		{
			"children":[
				22
			],
			"mesh":9,
			"name":"AirDuct-SharpBendRight"
		},
		{
			"mesh":10,
			"name":"AirDuct-SingleHoleLeftVentCover"
		},
		{
			"name":"Empty.011",
			"rotation":[
				0,
				-1,
				0,
				1.9470718370939721e-07
			],
			"translation":[
				-0.48573338985443115,
				0,
				0
			]
		},
		{
			"children":[
				24,
				25
			],
			"mesh":11,
			"name":"AirDuct-SingleHoleLeft"
		},
		{
			"mesh":12,
			"name":"AirDuct-SingleHoleRightVentCover"
		},
		{
			"name":"Empty.012",
			"rotation":[
				0,
				-1,
				0,
				1.9470718370939721e-07
			],
			"translation":[
				-0.48573338985443115,
				0,
				0
			]
		},
		{
			"children":[
				27,
				28
			],
			"mesh":13,
			"name":"AirDuct-SingleHoleRight"
		},
		{
			"mesh":14,
			"name":"DownVentCover"
		},
		{
			"name":"Empty.010",
			"rotation":[
				0,
				-1,
				0,
				1.9470718370939721e-07
			],
			"translation":[
				-0.48573338985443115,
				0,
				0
			]
		},
		{
			"children":[
				30,
				31
			],
			"mesh":15,
			"name":"AirDuct-SingleHoleDown"
		}
	],
	"meshes":[
		{
			"name":"DuctLong",
			"primitives":[
				{
					"attributes":{
						"POSITION":0,
						"NORMAL":1,
						"TEXCOORD_0":2
					},
					"indices":3
				}
			]
		},
		{
			"name":"CeilingWires",
			"primitives":[
				{
					"attributes":{
						"POSITION":4,
						"NORMAL":5,
						"TEXCOORD_0":6
					},
					"indices":7
				}
			]
		},
		{
			"name":"DuctConnector",
			"primitives":[
				{
					"attributes":{
						"POSITION":8,
						"NORMAL":9,
						"TEXCOORD_0":10
					},
					"indices":11
				}
			]
		},
		{
			"name":"DuctSingle",
			"primitives":[
				{
					"attributes":{
						"POSITION":12,
						"NORMAL":13,
						"TEXCOORD_0":14
					},
					"indices":15
				}
			]
		},
		{
			"name":"DuctTSplit",
			"primitives":[
				{
					"attributes":{
						"POSITION":16,
						"NORMAL":17,
						"TEXCOORD_0":18
					},
					"indices":19
				}
			]
		},
		{
			"name":"Duct90BendLeft",
			"primitives":[
				{
					"attributes":{
						"POSITION":20,
						"NORMAL":21,
						"TEXCOORD_0":22
					},
					"indices":23
				}
			]
		},
		{
			"name":"Duct4Split",
			"primitives":[
				{
					"attributes":{
						"POSITION":24,
						"NORMAL":25,
						"TEXCOORD_0":26
					},
					"indices":27
				}
			]
		},
		{
			"name":"Duct45BendLeft",
			"primitives":[
				{
					"attributes":{
						"POSITION":28,
						"NORMAL":29,
						"TEXCOORD_0":30
					},
					"indices":31
				}
			]
		},
		{
			"name":"Duct45BendRight",
			"primitives":[
				{
					"attributes":{
						"POSITION":32,
						"NORMAL":33,
						"TEXCOORD_0":34
					},
					"indices":35
				}
			]
		},
		{
			"name":"Duct90BendRight",
			"primitives":[
				{
					"attributes":{
						"POSITION":36,
						"NORMAL":37,
						"TEXCOORD_0":38
					},
					"indices":39
				}
			]
		},
		{
			"extras":{
				"targetNames":[
					"close"
				]
			},
			"name":"DuctSingleHoleLeftVentCover",
			"primitives":[
				{
					"attributes":{
						"POSITION":40,
						"NORMAL":41,
						"TEXCOORD_0":42
					},
					"indices":43,
					"targets":[
						{
							"POSITION":44,
							"NORMAL":45
						}
					]
				}
			],
			"weights":[
				0
			]
		},
		{
			"name":"DuctSingleHoleLeft",
			"primitives":[
				{
					"attributes":{
						"POSITION":46,
						"NORMAL":47,
						"TEXCOORD_0":48
					},
					"indices":49
				}
			]
		},
		{
			"extras":{
				"targetNames":[
					"close"
				]
			},
			"name":"DuctSingleHoleRightVentCover",
			"primitives":[
				{
					"attributes":{
						"POSITION":50,
						"NORMAL":51,
						"TEXCOORD_0":52
					},
					"indices":53,
					"targets":[
						{
							"POSITION":54,
							"NORMAL":55
						}
					]
				}
			],
			"weights":[
				1
			]
		},
		{
			"name":"DuctSingleHoleRight",
			"primitives":[
				{
					"attributes":{
						"POSITION":56,
						"NORMAL":57,
						"TEXCOORD_0":58
					},
					"indices":59
				}
			]
		},
		{
			"name":"DuctDownVentCover",
			"primitives":[
				{
					"attributes":{
						"POSITION":60,
						"NORMAL":61,
						"TEXCOORD_0":62
					},
					"indices":63
				}
			]
		},
		{
			"name":"DuctSingleHoleDown",
			"primitives":[
				{
					"attributes":{
						"POSITION":64,
						"NORMAL":65,
						"TEXCOORD_0":66
					},
					"indices":67
				}
			]
		}
	],
	"accessors":[
		{
			"bufferView":0,
			"componentType":5126,
			"count":120,
			"max":[
				0,
				0.15240001678466797,
				0.22860001027584076
			],
			"min":[
				-1.457200050354004,
				-0.15240001678466797,
				-0.22860001027584076
			],
			"type":"VEC3"
		},
		{
			"bufferView":1,
			"componentType":5126,
			"count":120,
			"type":"VEC3"
		},
		{
			"bufferView":2,
			"componentType":5126,
			"count":120,
			"type":"VEC2"
		},
		{
			"bufferView":3,
			"componentType":5123,
			"count":336,
			"type":"SCALAR"
		},
		{
			"bufferView":4,
			"componentType":5126,
			"count":40,
			"max":[
				0.008660193532705307,
				1.1624000072479248,
				0.1904943734407425
			],
			"min":[
				-0.00866020005196333,
				0.1623999923467636,
				-0.1904943734407425
			],
			"type":"VEC3"
		},
		{
			"bufferView":5,
			"componentType":5126,
			"count":40,
			"type":"VEC3"
		},
		{
			"bufferView":6,
			"componentType":5126,
			"count":40,
			"type":"VEC2"
		},
		{
			"bufferView":7,
			"componentType":5123,
			"count":72,
			"type":"SCALAR"
		},
		{
			"bufferView":8,
			"componentType":5126,
			"count":72,
			"max":[
				0.02139997109770775,
				0.1623999923467636,
				0.2386000007390976
			],
			"min":[
				-0.021399978548288345,
				-0.16240006685256958,
				-0.23860003054141998
			],
			"type":"VEC3"
		},
		{
			"bufferView":9,
			"componentType":5126,
			"count":72,
			"type":"VEC3"
		},
		{
			"bufferView":10,
			"componentType":5126,
			"count":72,
			"type":"VEC2"
		},
		{
			"bufferView":11,
			"componentType":5123,
			"count":192,
			"type":"SCALAR"
		},
		{
			"bufferView":12,
			"componentType":5126,
			"count":56,
			"max":[
				0,
				0.15240001678466797,
				0.22860001027584076
			],
			"min":[
				-0.48573338985443115,
				-0.15240001678466797,
				-0.22860001027584076
			],
			"type":"VEC3"
		},
		{
			"bufferView":13,
			"componentType":5126,
			"count":56,
			"type":"VEC3"
		},
		{
			"bufferView":14,
			"componentType":5126,
			"count":56,
			"type":"VEC2"
		},
		{
			"bufferView":15,
			"componentType":5123,
			"count":132,
			"type":"SCALAR"
		},
		{
			"bufferView":16,
			"componentType":5126,
			"count":220,
			"max":[
				0,
				0.16633138060569763,
				0.2786000967025757
			],
			"min":[
				-0.5241665840148926,
				-0.17123772203922272,
				-0.2786000072956085
			],
			"type":"VEC3"
		},
		{
			"bufferView":17,
			"componentType":5126,
			"count":220,
			"type":"VEC3"
		},
		{
			"bufferView":18,
			"componentType":5126,
			"count":220,
			"type":"VEC2"
		},
		{
			"bufferView":19,
			"componentType":5123,
			"count":540,
			"type":"SCALAR"
		},
		{
			"bufferView":20,
			"componentType":5126,
			"count":276,
			"max":[
				0,
				0.15274958312511444,
				0.28185704350471497
			],
			"min":[
				-0.5104570388793945,
				-0.15244995057582855,
				-0.22860002517700195
			],
			"type":"VEC3"
		},
		{
			"bufferView":21,
			"componentType":5126,
			"count":276,
			"type":"VEC3"
		},
		{
			"bufferView":22,
			"componentType":5126,
			"count":276,
			"type":"VEC2"
		},
		{
			"bufferView":23,
			"componentType":5123,
			"count":756,
			"type":"SCALAR"
		},
		{
			"bufferView":24,
			"componentType":5126,
			"count":324,
			"max":[
				0,
				1.1624000072479248,
				0.27859994769096375
			],
			"min":[
				-0.5572000741958618,
				-0.17123763263225555,
				-0.2786000370979309
			],
			"type":"VEC3"
		},
		{
			"bufferView":25,
			"componentType":5126,
			"count":324,
			"type":"VEC3"
		},
		{
			"bufferView":26,
			"componentType":5126,
			"count":324,
			"type":"VEC2"
		},
		{
			"bufferView":27,
			"componentType":5123,
			"count":756,
			"type":"SCALAR"
		},
		{
			"bufferView":28,
			"componentType":5126,
			"count":422,
			"max":[
				0,
				0.15309511125087738,
				0.6306439638137817
			],
			"min":[
				-1.2939090728759766,
				-0.15240001678466797,
				-0.22860001027584076
			],
			"type":"VEC3"
		},
		{
			"bufferView":29,
			"componentType":5126,
			"count":422,
			"type":"VEC3"
		},
		{
			"bufferView":30,
			"componentType":5126,
			"count":422,
			"type":"VEC2"
		},
		{
			"bufferView":31,
			"componentType":5123,
			"count":1440,
			"type":"SCALAR"
		},
		{
			"bufferView":32,
			"componentType":5126,
			"count":418,
			"max":[
				0,
				0.15309511125087738,
				0.22859998047351837
			],
			"min":[
				-1.2939090728759766,
				-0.15240001678466797,
				-0.6306439638137817
			],
			"type":"VEC3"
		},
		{
			"bufferView":33,
			"componentType":5126,
			"count":418,
			"type":"VEC3"
		},
		{
			"bufferView":34,
			"componentType":5126,
			"count":418,
			"type":"VEC2"
		},
		{
			"bufferView":35,
			"componentType":5123,
			"count":1440,
			"type":"SCALAR"
		},
		{
			"bufferView":36,
			"componentType":5126,
			"count":276,
			"max":[
				0,
				0.15274958312511444,
				0.22859999537467957
			],
			"min":[
				-0.5104570388793945,
				-0.15244995057582855,
				-0.28185707330703735
			],
			"type":"VEC3"
		},
		{
			"bufferView":37,
			"componentType":5126,
			"count":276,
			"type":"VEC3"
		},
		{
			"bufferView":38,
			"componentType":5126,
			"count":276,
			"type":"VEC2"
		},
		{
			"bufferView":39,
			"componentType":5123,
			"count":756,
			"type":"SCALAR"
		},
		{
			"bufferView":40,
			"componentType":5126,
			"count":924,
			"max":[
				-0.023715943098068237,
				0.12926338613033295,
				0.24239882826805115
			],
			"min":[
				-0.4620174169540405,
				-0.12926338613033295,
				0.22472287714481354
			],
			"type":"VEC3"
		},
		{
			"bufferView":41,
			"componentType":5126,
			"count":924,
			"type":"VEC3"
		},
		{
			"bufferView":42,
			"componentType":5126,
			"count":924,
			"type":"VEC2"
		},
		{
			"bufferView":43,
			"componentType":5123,
			"count":1668,
			"type":"SCALAR"
		},
		{
			"componentType":5126,
			"count":924,
			"max":[
				0.009840786457061768,
				0,
				0
			],
			"min":[
				-0.001481473445892334,
				0,
				-0.012293487787246704
			],
			"sparse":{
				"count":486,
				"indices":{
					"bufferView":44,
					"componentType":5123
				},
				"values":{
					"bufferView":45
				}
			},
			"type":"VEC3"
		},
		{
			"componentType":5126,
			"count":924,
			"sparse":{
				"count":700,
				"indices":{
					"bufferView":46,
					"componentType":5123
				},
				"values":{
					"bufferView":47
				}
			},
			"type":"VEC3"
		},
		{
			"bufferView":48,
			"componentType":5126,
			"count":80,
			"max":[
				0,
				0.15240001678466797,
				0.22860001027584076
			],
			"min":[
				-0.48573338985443115,
				-0.15240001678466797,
				-0.22860001027584076
			],
			"type":"VEC3"
		},
		{
			"bufferView":49,
			"componentType":5126,
			"count":80,
			"type":"VEC3"
		},
		{
			"bufferView":50,
			"componentType":5126,
			"count":80,
			"type":"VEC2"
		},
		{
			"bufferView":51,
			"componentType":5123,
			"count":192,
			"type":"SCALAR"
		},
		{
			"bufferView":52,
			"componentType":5126,
			"count":924,
			"max":[
				-0.02371615171432495,
				0.12926338613033295,
				-0.22472289204597473
			],
			"min":[
				-0.46201765537261963,
				-0.12926338613033295,
				-0.2423989623785019
			],
			"type":"VEC3"
		},
		{
			"bufferView":53,
			"componentType":5126,
			"count":924,
			"type":"VEC3"
		},
		{
			"bufferView":54,
			"componentType":5126,
			"count":924,
			"type":"VEC2"
		},
		{
			"bufferView":55,
			"componentType":5123,
			"count":1668,
			"type":"SCALAR"
		},
		{
			"componentType":5126,
			"count":924,
			"max":[
				0.0014815032482147217,
				0,
				0.012293502688407898
			],
			"min":[
				-0.009840801358222961,
				0,
				0
			],
			"sparse":{
				"count":486,
				"indices":{
					"bufferView":56,
					"componentType":5123
				},
				"values":{
					"bufferView":57
				}
			},
			"type":"VEC3"
		},
		{
			"componentType":5126,
			"count":924,
			"sparse":{
				"count":700,
				"indices":{
					"bufferView":58,
					"componentType":5123
				},
				"values":{
					"bufferView":59
				}
			},
			"type":"VEC3"
		},
		{
			"bufferView":60,
			"componentType":5126,
			"count":80,
			"max":[
				0,
				0.15240001678466797,
				0.22859998047351837
			],
			"min":[
				-0.48573338985443115,
				-0.15240001678466797,
				-0.22860004007816315
			],
			"type":"VEC3"
		},
		{
			"bufferView":61,
			"componentType":5126,
			"count":80,
			"type":"VEC3"
		},
		{
			"bufferView":62,
			"componentType":5126,
			"count":80,
			"type":"VEC2"
		},
		{
			"bufferView":63,
			"componentType":5123,
			"count":192,
			"type":"SCALAR"
		},
		{
			"bufferView":64,
			"componentType":5126,
			"count":404,
			"max":[
				-0.04783816635608673,
				-0.1673743724822998,
				0.19502851366996765
			],
			"min":[
				-0.43789517879486084,
				-0.1893250048160553,
				-0.19502851366996765
			],
			"type":"VEC3"
		},
		{
			"bufferView":65,
			"componentType":5126,
			"count":404,
			"type":"VEC3"
		},
		{
			"bufferView":66,
			"componentType":5126,
			"count":404,
			"type":"VEC2"
		},
		{
			"bufferView":67,
			"componentType":5123,
			"count":1170,
			"type":"SCALAR"
		},
		{
			"bufferView":68,
			"componentType":5126,
			"count":152,
			"max":[
				0,
				0.15240001678466797,
				0.22860001027584076
			],
			"min":[
				-0.48573338985443115,
				-0.1829826831817627,
				-0.22860001027584076
			],
			"type":"VEC3"
		},
		{
			"bufferView":69,
			"componentType":5126,
			"count":152,
			"type":"VEC3"
		},
		{
			"bufferView":70,
			"componentType":5126,
			"count":152,
			"type":"VEC2"
		},
		{
			"bufferView":71,
			"componentType":5123,
			"count":432,
			"type":"SCALAR"
		}
	],
	"bufferViews":[
		{
			"buffer":0,
			"byteLength":1440,
			"byteOffset":0,
			"target":34962
		},
		{
			"buffer":0,
			"byteLength":1440,
			"byteOffset":1440,
			"target":34962
		},
		{
			"buffer":0,
			"byteLength":960,
			"byteOffset":2880,
			"target":34962
		},
		{
			"buffer":0,
			"byteLength":672,
			"byteOffset":3840,
			"target":34963
		},
		{
			"buffer":0,
			"byteLength":480,
			"byteOffset":4512,
			"target":34962
		},
		{
			"buffer":0,
			"byteLength":480,
			"byteOffset":4992,
			"target":34962
		},
		{
			"buffer":0,
			"byteLength":320,
			"byteOffset":5472,
			"target":34962
		},
		{
			"buffer":0,
			"byteLength":144,
			"byteOffset":5792,
			"target":34963
		},
		{
			"buffer":0,
			"byteLength":864,
			"byteOffset":5936,
			"target":34962
		},
		{
			"buffer":0,
			"byteLength":864,
			"byteOffset":6800,
			"target":34962
		},
		{
			"buffer":0,
			"byteLength":576,
			"byteOffset":7664,
			"target":34962
		},
		{
			"buffer":0,
			"byteLength":384,
			"byteOffset":8240,
			"target":34963
		},
		{
			"buffer":0,
			"byteLength":672,
			"byteOffset":8624,
			"target":34962
		},
		{
			"buffer":0,
			"byteLength":672,
			"byteOffset":9296,
			"target":34962
		},
		{
			"buffer":0,
			"byteLength":448,
			"byteOffset":9968,
			"target":34962
		},
		{
			"buffer":0,
			"byteLength":264,
			"byteOffset":10416,
			"target":34963
		},
		{
			"buffer":0,
			"byteLength":2640,
			"byteOffset":10680,
			"target":34962
		},
		{
			"buffer":0,
			"byteLength":2640,
			"byteOffset":13320,
			"target":34962
		},
		{
			"buffer":0,
			"byteLength":1760,
			"byteOffset":15960,
			"target":34962
		},
		{
			"buffer":0,
			"byteLength":1080,
			"byteOffset":17720,
			"target":34963
		},
		{
			"buffer":0,
			"byteLength":3312,
			"byteOffset":18800,
			"target":34962
		},
		{
			"buffer":0,
			"byteLength":3312,
			"byteOffset":22112,
			"target":34962
		},
		{
			"buffer":0,
			"byteLength":2208,
			"byteOffset":25424,
			"target":34962
		},
		{
			"buffer":0,
			"byteLength":1512,
			"byteOffset":27632,
			"target":34963
		},
		{
			"buffer":0,
			"byteLength":3888,
			"byteOffset":29144,
			"target":34962
		},
		{
			"buffer":0,
			"byteLength":3888,
			"byteOffset":33032,
			"target":34962
		},
		{
			"buffer":0,
			"byteLength":2592,
			"byteOffset":36920,
			"target":34962
		},
		{
			"buffer":0,
			"byteLength":1512,
			"byteOffset":39512,
			"target":34963
		},
		{
			"buffer":0,
			"byteLength":5064,
			"byteOffset":41024,
			"target":34962
		},
		{
			"buffer":0,
			"byteLength":5064,
			"byteOffset":46088,
			"target":34962
		},
		{
			"buffer":0,
			"byteLength":3376,
			"byteOffset":51152,
			"target":34962
		},
		{
			"buffer":0,
			"byteLength":2880,
			"byteOffset":54528,
			"target":34963
		},
		{
			"buffer":0,
			"byteLength":5016,
			"byteOffset":57408,
			"target":34962
		},
		{
			"buffer":0,
			"byteLength":5016,
			"byteOffset":62424,
			"target":34962
		},
		{
			"buffer":0,
			"byteLength":3344,
			"byteOffset":67440,
			"target":34962
		},
		{
			"buffer":0,
			"byteLength":2880,
			"byteOffset":70784,
			"target":34963
		},
		{
			"buffer":0,
			"byteLength":3312,
			"byteOffset":73664,
			"target":34962
		},
		{
			"buffer":0,
			"byteLength":3312,
			"byteOffset":76976,
			"target":34962
		},
		{
			"buffer":0,
			"byteLength":2208,
			"byteOffset":80288,
			"target":34962
		},
		{
			"buffer":0,
			"byteLength":1512,
			"byteOffset":82496,
			"target":34963
		},
		{
			"buffer":0,
			"byteLength":11088,
			"byteOffset":84008,
			"target":34962
		},
		{
			"buffer":0,
			"byteLength":11088,
			"byteOffset":95096,
			"target":34962
		},
		{
			"buffer":0,
			"byteLength":7392,
			"byteOffset":106184,
			"target":34962
		},
		{
			"buffer":0,
			"byteLength":3336,
			"byteOffset":113576,
			"target":34963
		},
		{
			"buffer":0,
			"byteLength":972,
			"byteOffset":116912
		},
		{
			"buffer":0,
			"byteLength":5832,
			"byteOffset":117884
		},
		{
			"buffer":0,
			"byteLength":1400,
			"byteOffset":123716
		},
		{
			"buffer":0,
			"byteLength":8400,
			"byteOffset":125116
		},
		{
			"buffer":0,
			"byteLength":960,
			"byteOffset":133516,
			"target":34962
		},
		{
			"buffer":0,
			"byteLength":960,
			"byteOffset":134476,
			"target":34962
		},
		{
			"buffer":0,
			"byteLength":640,
			"byteOffset":135436,
			"target":34962
		},
		{
			"buffer":0,
			"byteLength":384,
			"byteOffset":136076,
			"target":34963
		},
		{
			"buffer":0,
			"byteLength":11088,
			"byteOffset":136460,
			"target":34962
		},
		{
			"buffer":0,
			"byteLength":11088,
			"byteOffset":147548,
			"target":34962
		},
		{
			"buffer":0,
			"byteLength":7392,
			"byteOffset":158636,
			"target":34962
		},
		{
			"buffer":0,
			"byteLength":3336,
			"byteOffset":166028,
			"target":34963
		},
		{
			"buffer":0,
			"byteLength":972,
			"byteOffset":169364
		},
		{
			"buffer":0,
			"byteLength":5832,
			"byteOffset":170336
		},
		{
			"buffer":0,
			"byteLength":1400,
			"byteOffset":176168
		},
		{
			"buffer":0,
			"byteLength":8400,
			"byteOffset":177568
		},
		{
			"buffer":0,
			"byteLength":960,
			"byteOffset":185968,
			"target":34962
		},
		{
			"buffer":0,
			"byteLength":960,
			"byteOffset":186928,
			"target":34962
		},
		{
			"buffer":0,
			"byteLength":640,
			"byteOffset":187888,
			"target":34962
		},
		{
			"buffer":0,
			"byteLength":384,
			"byteOffset":188528,
			"target":34963
		},
		{
			"buffer":0,
			"byteLength":4848,
			"byteOffset":188912,
			"target":34962
		},
		{
			"buffer":0,
			"byteLength":4848,
			"byteOffset":193760,
			"target":34962
		},
		{
			"buffer":0,
			"byteLength":3232,
			"byteOffset":198608,
			"target":34962
		},
		{
			"buffer":0,
			"byteLength":2340,
			"byteOffset":201840,
			"target":34963
		},
		{
			"buffer":0,
			"byteLength":1824,
			"byteOffset":204180,
			"target":34962
		},
		{
			"buffer":0,
			"byteLength":1824,
			"byteOffset":206004,
			"target":34962
		},
		{
			"buffer":0,
			"byteLength":1216,
			"byteOffset":207828,
			"target":34962
		},
		{
			"buffer":0,
			"byteLength":864,
			"byteOffset":209044,
			"target":34963
		}
	],
	"buffers":[
		{
			"byteLength":209908,
			"uri":"AirDucts.bin"
		}
	]
}
