{
	"asset":{
		"generator":"Khronos glTF Blender I/O v4.3.47",
		"version":"2.0"
	},
	"scene":0,
	"scenes":[
		{
			"name":"Scene",
			"nodes":[
				0,
				2,
				3,
				4,
				5,
				6,
				7,
				8,
				9,
				11,
				13,
				15
			]
		}
	],
	"nodes":[
		{
			"mesh":0,
			"name":"AirDuct-Long"
		},
		{
			"mesh":1,
			"name":"AirductCeilingConnector"
		},
		{
			"children":[
				1
			],
			"mesh":2,
			"name":"AirductConnector"
		},
		{
			"mesh":3,
			"name":"AirDuct-Single"
		},
		{
			"mesh":4,
			"name":"AirDuct-T-Split"
		},
		{
			"mesh":5,
			"name":"AirDuct-SharpBendLeft"
		},
		{
			"mesh":6,
			"name":"AirDuct-4WaySplit"
		},
		{
			"mesh":7,
			"name":"AirDuct-45-BendLeft"
		},
		{
			"mesh":8,
			"name":"AirDuct-45-BendRight"
		},
		{
			"mesh":9,
			"name":"AirDuct-SharpBendRight"
		},
		{
			"mesh":10,
			"name":"AirDuct-SingleHoleLeftVentCover"
		},
		{
			"children":[
				10
			],
			"mesh":11,
			"name":"AirDuct-SingleHoleLeft"
		},
		{
			"mesh":12,
			"name":"AirDuct-SingleHoleRightVentCover"
		},
		{
			"children":[
				12
			],
			"mesh":13,
			"name":"AirDuct-SingleHoleRight"
		},
		{
			"mesh":14,
			"name":"DownVentCover"
		},
		{
			"children":[
				14
			],
			"mesh":15,
			"name":"AirDuct-SingleHoleDown"
		}
	],
	"meshes":[
		{
			"name":"DuctLong",
			"primitives":[
				{
					"attributes":{
						"POSITION":0,
						"NORMAL":1,
						"TEXCOORD_0":2
					},
					"indices":3
				}
			]
		},
		{
			"name":"CeilingWires",
			"primitives":[
				{
					"attributes":{
						"POSITION":4,
						"NORMAL":5,
						"TEXCOORD_0":6
					},
					"indices":7
				}
			]
		},
		{
			"name":"DuctConnector",
			"primitives":[
				{
					"attributes":{
						"POSITION":8,
						"NORMAL":9,
						"TEXCOORD_0":10
					},
					"indices":11
				}
			]
		},
		{
			"name":"DuctSingle",
			"primitives":[
				{
					"attributes":{
						"POSITION":12,
						"NORMAL":13,
						"TEXCOORD_0":14
					},
					"indices":15
				}
			]
		},
		{
			"name":"DuctTSplit",
			"primitives":[
				{
					"attributes":{
						"POSITION":16,
						"NORMAL":17,
						"TEXCOORD_0":18
					},
					"indices":19
				}
			]
		},
		{
			"name":"Duct90BendLeft",
			"primitives":[
				{
					"attributes":{
						"POSITION":20,
						"NORMAL":21,
						"TEXCOORD_0":22
					},
					"indices":23
				}
			]
		},
		{
			"name":"Duct4Split",
			"primitives":[
				{
					"attributes":{
						"POSITION":24,
						"NORMAL":25,
						"TEXCOORD_0":26
					},
					"indices":27
				}
			]
		},
		{
			"name":"Duct45BendLeft",
			"primitives":[
				{
					"attributes":{
						"POSITION":28,
						"NORMAL":29,
						"TEXCOORD_0":30
					},
					"indices":31
				}
			]
		},
		{
			"name":"Duct45BendRight",
			"primitives":[
				{
					"attributes":{
						"POSITION":32,
						"NORMAL":33,
						"TEXCOORD_0":34
					},
					"indices":35
				}
			]
		},
		{
			"name":"Duct90BendRight",
			"primitives":[
				{
					"attributes":{
						"POSITION":36,
						"NORMAL":37,
						"TEXCOORD_0":38
					},
					"indices":39
				}
			]
		},
		{
			"extras":{
				"targetNames":[
					"close"
				]
			},
			"name":"DuctSingleHoleLeftVentCover",
			"primitives":[
				{
					"attributes":{
						"POSITION":40,
						"NORMAL":41,
						"TEXCOORD_0":42
					},
					"indices":43,
					"targets":[
						{
							"POSITION":44,
							"NORMAL":45
						}
					]
				}
			],
			"weights":[
				0
			]
		},
		{
			"name":"DuctSingleHoleLeft",
			"primitives":[
				{
					"attributes":{
						"POSITION":46,
						"NORMAL":47,
						"TEXCOORD_0":48
					},
					"indices":49
				}
			]
		},
		{
			"extras":{
				"targetNames":[
					"close"
				]
			},
			"name":"DuctSingleHoleRightVentCover",
			"primitives":[
				{
					"attributes":{
						"POSITION":50,
						"NORMAL":51,
						"TEXCOORD_0":52
					},
					"indices":53,
					"targets":[
						{
							"POSITION":54,
							"NORMAL":55
						}
					]
				}
			],
			"weights":[
				1
			]
		},
		{
			"name":"DuctSingleHoleRight",
			"primitives":[
				{
					"attributes":{
						"POSITION":56,
						"NORMAL":57,
						"TEXCOORD_0":58
					},
					"indices":59
				}
			]
		},
		{
			"name":"DuctDownVentCover",
			"primitives":[
				{
					"attributes":{
						"POSITION":60,
						"NORMAL":61,
						"TEXCOORD_0":62
					},
					"indices":63
				}
			]
		},
		{
			"name":"DuctSingleHoleDown",
			"primitives":[
				{
					"attributes":{
						"POSITION":64,
						"NORMAL":65,
						"TEXCOORD_0":66
					},
					"indices":67
				}
			]
		}
	],
	"accessors":[
		{
			"bufferView":0,
			"componentType":5126,
			"count":120,
			"max":[
				0,
				0.15240001678466797,
				0.22860001027584076
			],
			"min":[
				-1.457200050354004,
				-0.15240001678466797,
				-0.22860001027584076
			],
			"type":"VEC3"
		},
		{
			"bufferView":1,
			"componentType":5126,
			"count":120,
			"type":"VEC3"
		},
		{
			"bufferView":2,
			"componentType":5126,
			"count":120,
			"type":"VEC2"
		},
		{
			"bufferView":3,
			"componentType":5123,
			"count":336,
			"type":"SCALAR"
		},
		{
			"bufferView":4,
			"componentType":5126,
			"count":28,
			"max":[
				0.008660193532705307,
				1.1624000072479248,
				0.1904943734407425
			],
			"min":[
				-0.00866020005196333,
				0.1623999923467636,
				-0.1904943734407425
			],
			"type":"VEC3"
		},
		{
			"bufferView":5,
			"componentType":5126,
			"count":28,
			"type":"VEC3"
		},
		{
			"bufferView":6,
			"componentType":5126,
			"count":28,
			"type":"VEC2"
		},
		{
			"bufferView":7,
			"componentType":5123,
			"count":72,
			"type":"SCALAR"
		},
		{
			"bufferView":8,
			"componentType":5126,
			"count":72,
			"max":[
				0.02139997109770775,
				0.1623999923467636,
				0.2386000007390976
			],
			"min":[
				-0.021399978548288345,
				-0.16240006685256958,
				-0.23860003054141998
			],
			"type":"VEC3"
		},
		{
			"bufferView":9,
			"componentType":5126,
			"count":72,
			"type":"VEC3"
		},
		{
			"bufferView":10,
			"componentType":5126,
			"count":72,
			"type":"VEC2"
		},
		{
			"bufferView":11,
			"componentType":5123,
			"count":192,
			"type":"SCALAR"
		},
		{
			"bufferView":12,
			"componentType":5126,
			"count":44,
			"max":[
				0,
				0.15240001678466797,
				0.22860001027584076
			],
			"min":[
				-0.48573338985443115,
				-0.15240001678466797,
				-0.22860001027584076
			],
			"type":"VEC3"
		},
		{
			"bufferView":13,
			"componentType":5126,
			"count":44,
			"type":"VEC3"
		},
		{
			"bufferView":14,
			"componentType":5126,
			"count":44,
			"type":"VEC2"
		},
		{
			"bufferView":15,
			"componentType":5123,
			"count":132,
			"type":"SCALAR"
		},
		{
			"bufferView":16,
			"componentType":5126,
			"count":172,
			"max":[
				0,
				0.16633138060569763,
				0.2786000967025757
			],
			"min":[
				-0.5241665840148926,
				-0.17123772203922272,
				-0.2786000072956085
			],
			"type":"VEC3"
		},
		{
			"bufferView":17,
			"componentType":5126,
			"count":172,
			"type":"VEC3"
		},
		{
			"bufferView":18,
			"componentType":5126,
			"count":172,
			"type":"VEC2"
		},
		{
			"bufferView":19,
			"componentType":5123,
			"count":540,
			"type":"SCALAR"
		},
		{
			"bufferView":20,
			"componentType":5126,
			"count":183,
			"max":[
				0,
				0.15274958312511444,
				0.28185704350471497
			],
			"min":[
				-0.5104570388793945,
				-0.15244995057582855,
				-0.22860002517700195
			],
			"type":"VEC3"
		},
		{
			"bufferView":21,
			"componentType":5126,
			"count":183,
			"type":"VEC3"
		},
		{
			"bufferView":22,
			"componentType":5126,
			"count":183,
			"type":"VEC2"
		},
		{
			"bufferView":23,
			"componentType":5123,
			"count":756,
			"type":"SCALAR"
		},
		{
			"bufferView":24,
			"componentType":5126,
			"count":255,
			"max":[
				0,
				1.1624000072479248,
				0.27859994769096375
			],
			"min":[
				-0.5572000741958618,
				-0.17123763263225555,
				-0.2786000370979309
			],
			"type":"VEC3"
		},
		{
			"bufferView":25,
			"componentType":5126,
			"count":255,
			"type":"VEC3"
		},
		{
			"bufferView":26,
			"componentType":5126,
			"count":255,
			"type":"VEC2"
		},
		{
			"bufferView":27,
			"componentType":5123,
			"count":756,
			"type":"SCALAR"
		},
		{
			"bufferView":28,
			"componentType":5126,
			"count":340,
			"max":[
				0,
				0.15309511125087738,
				0.6306439638137817
			],
			"min":[
				-1.2939090728759766,
				-0.15240001678466797,
				-0.22860001027584076
			],
			"type":"VEC3"
		},
		{
			"bufferView":29,
			"componentType":5126,
			"count":340,
			"type":"VEC3"
		},
		{
			"bufferView":30,
			"componentType":5126,
			"count":340,
			"type":"VEC2"
		},
		{
			"bufferView":31,
			"componentType":5123,
			"count":1440,
			"type":"SCALAR"
		},
		{
			"bufferView":32,
			"componentType":5126,
			"count":340,
			"max":[
				0,
				0.15309511125087738,
				0.22859998047351837
			],
			"min":[
				-1.2939090728759766,
				-0.15240001678466797,
				-0.6306439638137817
			],
			"type":"VEC3"
		},
		{
			"bufferView":33,
			"componentType":5126,
			"count":340,
			"type":"VEC3"
		},
		{
			"bufferView":34,
			"componentType":5126,
			"count":340,
			"type":"VEC2"
		},
		{
			"bufferView":35,
			"componentType":5123,
			"count":1440,
			"type":"SCALAR"
		},
		{
			"bufferView":36,
			"componentType":5126,
			"count":183,
			"max":[
				0,
				0.15274958312511444,
				0.22859999537467957
			],
			"min":[
				-0.5104570388793945,
				-0.15244995057582855,
				-0.28185707330703735
			],
			"type":"VEC3"
		},
		{
			"bufferView":37,
			"componentType":5126,
			"count":183,
			"type":"VEC3"
		},
		{
			"bufferView":38,
			"componentType":5126,
			"count":183,
			"type":"VEC2"
		},
		{
			"bufferView":39,
			"componentType":5123,
			"count":756,
			"type":"SCALAR"
		},
		{
			"bufferView":40,
			"componentType":5126,
			"count":892,
			"max":[
				-0.023715943098068237,
				0.12926338613033295,
				0.24239882826805115
			],
			"min":[
				-0.4620174169540405,
				-0.12926338613033295,
				0.22472287714481354
			],
			"type":"VEC3"
		},
		{
			"bufferView":41,
			"componentType":5126,
			"count":892,
			"type":"VEC3"
		},
		{
			"bufferView":42,
			"componentType":5126,
			"count":892,
			"type":"VEC2"
		},
		{
			"bufferView":43,
			"componentType":5123,
			"count":1668,
			"type":"SCALAR"
		},
		{
			"componentType":5126,
			"count":892,
			"max":[
				0.009840786457061768,
				0,
				0
			],
			"min":[
				-0.001481473445892334,
				0,
				-0.012293487787246704
			],
			"sparse":{
				"count":432,
				"indices":{
					"bufferView":44,
					"componentType":5123
				},
				"values":{
					"bufferView":45
				}
			},
			"type":"VEC3"
		},
		{
			"componentType":5126,
			"count":892,
			"sparse":{
				"count":640,
				"indices":{
					"bufferView":46,
					"componentType":5123
				},
				"values":{
					"bufferView":47
				}
			},
			"type":"VEC3"
		},
		{
			"bufferView":48,
			"componentType":5126,
			"count":52,
			"max":[
				0,
				0.15240001678466797,
				0.22860001027584076
			],
			"min":[
				-0.48573338985443115,
				-0.15240001678466797,
				-0.22860001027584076
			],
			"type":"VEC3"
		},
		{
			"bufferView":49,
			"componentType":5126,
			"count":52,
			"type":"VEC3"
		},
		{
			"bufferView":50,
			"componentType":5126,
			"count":52,
			"type":"VEC2"
		},
		{
			"bufferView":51,
			"componentType":5123,
			"count":192,
			"type":"SCALAR"
		},
		{
			"bufferView":52,
			"componentType":5126,
			"count":892,
			"max":[
				-0.02371615171432495,
				0.12926338613033295,
				-0.22472289204597473
			],
			"min":[
				-0.46201765537261963,
				-0.12926338613033295,
				-0.2423989623785019
			],
			"type":"VEC3"
		},
		{
			"bufferView":53,
			"componentType":5126,
			"count":892,
			"type":"VEC3"
		},
		{
			"bufferView":54,
			"componentType":5126,
			"count":892,
			"type":"VEC2"
		},
		{
			"bufferView":55,
			"componentType":5123,
			"count":1668,
			"type":"SCALAR"
		},
		{
			"componentType":5126,
			"count":892,
			"max":[
				0.0014815032482147217,
				0,
				0.012293502688407898
			],
			"min":[
				-0.009840801358222961,
				0,
				0
			],
			"sparse":{
				"count":432,
				"indices":{
					"bufferView":56,
					"componentType":5123
				},
				"values":{
					"bufferView":57
				}
			},
			"type":"VEC3"
		},
		{
			"componentType":5126,
			"count":892,
			"sparse":{
				"count":640,
				"indices":{
					"bufferView":58,
					"componentType":5123
				},
				"values":{
					"bufferView":59
				}
			},
			"type":"VEC3"
		},
		{
			"bufferView":60,
			"componentType":5126,
			"count":52,
			"max":[
				0,
				0.15240001678466797,
				0.22859998047351837
			],
			"min":[
				-0.48573338985443115,
				-0.15240001678466797,
				-0.22860004007816315
			],
			"type":"VEC3"
		},
		{
			"bufferView":61,
			"componentType":5126,
			"count":52,
			"type":"VEC3"
		},
		{
			"bufferView":62,
			"componentType":5126,
			"count":52,
			"type":"VEC2"
		},
		{
			"bufferView":63,
			"componentType":5123,
			"count":192,
			"type":"SCALAR"
		},
		{
			"bufferView":64,
			"componentType":5126,
			"count":594,
			"max":[
				-0.04783816635608673,
				-0.1673743724822998,
				0.19502851366996765
			],
			"min":[
				-0.43789517879486084,
				-0.1893250048160553,
				-0.19502851366996765
			],
			"type":"VEC3"
		},
		{
			"bufferView":65,
			"componentType":5126,
			"count":594,
			"type":"VEC3"
		},
		{
			"bufferView":66,
			"componentType":5126,
			"count":594,
			"type":"VEC2"
		},
		{
			"bufferView":67,
			"componentType":5123,
			"count":1170,
			"type":"SCALAR"
		},
		{
			"bufferView":68,
			"componentType":5126,
			"count":151,
			"max":[
				0,
				0.15240001678466797,
				0.22860001027584076
			],
			"min":[
				-0.48573338985443115,
				-0.1829826831817627,
				-0.22860001027584076
			],
			"type":"VEC3"
		},
		{
			"bufferView":69,
			"componentType":5126,
			"count":151,
			"type":"VEC3"
		},
		{
			"bufferView":70,
			"componentType":5126,
			"count":151,
			"type":"VEC2"
		},
		{
			"bufferView":71,
			"componentType":5123,
			"count":432,
			"type":"SCALAR"
		}
	],
	"bufferViews":[
		{
			"buffer":0,
			"byteLength":1440,
			"byteOffset":0,
			"target":34962
		},
		{
			"buffer":0,
			"byteLength":1440,
			"byteOffset":1440,
			"target":34962
		},
		{
			"buffer":0,
			"byteLength":960,
			"byteOffset":2880,
			"target":34962
		},
		{
			"buffer":0,
			"byteLength":672,
			"byteOffset":3840,
			"target":34963
		},
		{
			"buffer":0,
			"byteLength":336,
			"byteOffset":4512,
			"target":34962
		},
		{
			"buffer":0,
			"byteLength":336,
			"byteOffset":4848,
			"target":34962
		},
		{
			"buffer":0,
			"byteLength":224,
			"byteOffset":5184,
			"target":34962
		},
		{
			"buffer":0,
			"byteLength":144,
			"byteOffset":5408,
			"target":34963
		},
		{
			"buffer":0,
			"byteLength":864,
			"byteOffset":5552,
			"target":34962
		},
		{
			"buffer":0,
			"byteLength":864,
			"byteOffset":6416,
			"target":34962
		},
		{
			"buffer":0,
			"byteLength":576,
			"byteOffset":7280,
			"target":34962
		},
		{
			"buffer":0,
			"byteLength":384,
			"byteOffset":7856,
			"target":34963
		},
		{
			"buffer":0,
			"byteLength":528,
			"byteOffset":8240,
			"target":34962
		},
		{
			"buffer":0,
			"byteLength":528,
			"byteOffset":8768,
			"target":34962
		},
		{
			"buffer":0,
			"byteLength":352,
			"byteOffset":9296,
			"target":34962
		},
		{
			"buffer":0,
			"byteLength":264,
			"byteOffset":9648,
			"target":34963
		},
		{
			"buffer":0,
			"byteLength":2064,
			"byteOffset":9912,
			"target":34962
		},
		{
			"buffer":0,
			"byteLength":2064,
			"byteOffset":11976,
			"target":34962
		},
		{
			"buffer":0,
			"byteLength":1376,
			"byteOffset":14040,
			"target":34962
		},
		{
			"buffer":0,
			"byteLength":1080,
			"byteOffset":15416,
			"target":34963
		},
		{
			"buffer":0,
			"byteLength":2196,
			"byteOffset":16496,
			"target":34962
		},
		{
			"buffer":0,
			"byteLength":2196,
			"byteOffset":18692,
			"target":34962
		},
		{
			"buffer":0,
			"byteLength":1464,
			"byteOffset":20888,
			"target":34962
		},
		{
			"buffer":0,
			"byteLength":1512,
			"byteOffset":22352,
			"target":34963
		},
		{
			"buffer":0,
			"byteLength":3060,
			"byteOffset":23864,
			"target":34962
		},
		{
			"buffer":0,
			"byteLength":3060,
			"byteOffset":26924,
			"target":34962
		},
		{
			"buffer":0,
			"byteLength":2040,
			"byteOffset":29984,
			"target":34962
		},
		{
			"buffer":0,
			"byteLength":1512,
			"byteOffset":32024,
			"target":34963
		},
		{
			"buffer":0,
			"byteLength":4080,
			"byteOffset":33536,
			"target":34962
		},
		{
			"buffer":0,
			"byteLength":4080,
			"byteOffset":37616,
			"target":34962
		},
		{
			"buffer":0,
			"byteLength":2720,
			"byteOffset":41696,
			"target":34962
		},
		{
			"buffer":0,
			"byteLength":2880,
			"byteOffset":44416,
			"target":34963
		},
		{
			"buffer":0,
			"byteLength":4080,
			"byteOffset":47296,
			"target":34962
		},
		{
			"buffer":0,
			"byteLength":4080,
			"byteOffset":51376,
			"target":34962
		},
		{
			"buffer":0,
			"byteLength":2720,
			"byteOffset":55456,
			"target":34962
		},
		{
			"buffer":0,
			"byteLength":2880,
			"byteOffset":58176,
			"target":34963
		},
		{
			"buffer":0,
			"byteLength":2196,
			"byteOffset":61056,
			"target":34962
		},
		{
			"buffer":0,
			"byteLength":2196,
			"byteOffset":63252,
			"target":34962
		},
		{
			"buffer":0,
			"byteLength":1464,
			"byteOffset":65448,
			"target":34962
		},
		{
			"buffer":0,
			"byteLength":1512,
			"byteOffset":66912,
			"target":34963
		},
		{
			"buffer":0,
			"byteLength":10704,
			"byteOffset":68424,
			"target":34962
		},
		{
			"buffer":0,
			"byteLength":10704,
			"byteOffset":79128,
			"target":34962
		},
		{
			"buffer":0,
			"byteLength":7136,
			"byteOffset":89832,
			"target":34962
		},
		{
			"buffer":0,
			"byteLength":3336,
			"byteOffset":96968,
			"target":34963
		},
		{
			"buffer":0,
			"byteLength":864,
			"byteOffset":100304
		},
		{
			"buffer":0,
			"byteLength":5184,
			"byteOffset":101168
		},
		{
			"buffer":0,
			"byteLength":1280,
			"byteOffset":106352
		},
		{
			"buffer":0,
			"byteLength":7680,
			"byteOffset":107632
		},
		{
			"buffer":0,
			"byteLength":624,
			"byteOffset":115312,
			"target":34962
		},
		{
			"buffer":0,
			"byteLength":624,
			"byteOffset":115936,
			"target":34962
		},
		{
			"buffer":0,
			"byteLength":416,
			"byteOffset":116560,
			"target":34962
		},
		{
			"buffer":0,
			"byteLength":384,
			"byteOffset":116976,
			"target":34963
		},
		{
			"buffer":0,
			"byteLength":10704,
			"byteOffset":117360,
			"target":34962
		},
		{
			"buffer":0,
			"byteLength":10704,
			"byteOffset":128064,
			"target":34962
		},
		{
			"buffer":0,
			"byteLength":7136,
			"byteOffset":138768,
			"target":34962
		},
		{
			"buffer":0,
			"byteLength":3336,
			"byteOffset":145904,
			"target":34963
		},
		{
			"buffer":0,
			"byteLength":864,
			"byteOffset":149240
		},
		{
			"buffer":0,
			"byteLength":5184,
			"byteOffset":150104
		},
		{
			"buffer":0,
			"byteLength":1280,
			"byteOffset":155288
		},
		{
			"buffer":0,
			"byteLength":7680,
			"byteOffset":156568
		},
		{
			"buffer":0,
			"byteLength":624,
			"byteOffset":164248,
			"target":34962
		},
		{
			"buffer":0,
			"byteLength":624,
			"byteOffset":164872,
			"target":34962
		},
		{
			"buffer":0,
			"byteLength":416,
			"byteOffset":165496,
			"target":34962
		},
		{
			"buffer":0,
			"byteLength":384,
			"byteOffset":165912,
			"target":34963
		},
		{
			"buffer":0,
			"byteLength":7128,
			"byteOffset":166296,
			"target":34962
		},
		{
			"buffer":0,
			"byteLength":7128,
			"byteOffset":173424,
			"target":34962
		},
		{
			"buffer":0,
			"byteLength":4752,
			"byteOffset":180552,
			"target":34962
		},
		{
			"buffer":0,
			"byteLength":2340,
			"byteOffset":185304,
			"target":34963
		},
		{
			"buffer":0,
			"byteLength":1812,
			"byteOffset":187644,
			"target":34962
		},
		{
			"buffer":0,
			"byteLength":1812,
			"byteOffset":189456,
			"target":34962
		},
		{
			"buffer":0,
			"byteLength":1208,
			"byteOffset":191268,
			"target":34962
		},
		{
			"buffer":0,
			"byteLength":864,
			"byteOffset":192476,
			"target":34963
		}
	],
	"buffers":[
		{
			"byteLength":193340,
			"uri":"AirDucts.bin"
		}
	]
}
