{
	"asset":{
		"generator":"Khronos glTF Blender I/O v3.6.27",
		"version":"2.0"
	},
	"scene":0,
	"scenes":[
		{
			"name":"Scene",
			"nodes":[
				6,
				7
			]
		}
	],
	"nodes":[
		{
			"mesh":0,
			"name":"fanLight"
		},
		{
			"mesh":1,
			"name":"fanBlade.001",
			"rotation":[
				0,
				0.7071067094802856,
				0,
				0.7071068286895752
			]
		},
		{
			"mesh":1,
			"name":"fanBlade.002",
			"rotation":[
				0,
				-1,
				0,
				2.821299744937278e-07
			]
		},
		{
			"mesh":1,
			"name":"fanBlade.003"
		},
		{
			"mesh":1,
			"name":"fanBlade.004",
			"rotation":[
				0,
				-0.7071064710617065,
				0,
				0.7071071863174438
			]
		},
		{
			"children":[
				1,
				2,
				3,
				4
			],
			"mesh":2,
			"name":"fanSpinner"
		},
		{
			"children":[
				0,
				5
			],
			"mesh":3,
			"name":"fanBase"
		},
		{
			"mesh":4,
			"name":"fanattachment"
		}
	],
	"meshes":[
		{
			"name":"fanLightMesh",
			"primitives":[
				{
					"attributes":{
						"POSITION":0,
						"NORMAL":1,
						"TEXCOORD_0":2
					},
					"indices":3
				}
			]
		},
		{
			"name":"fanBladeMesh",
			"primitives":[
				{
					"attributes":{
						"POSITION":4,
						"NORMAL":5,
						"TEXCOORD_0":6
					},
					"indices":7
				}
			]
		},
		{
			"name":"fanSpinnerMesh",
			"primitives":[
				{
					"attributes":{
						"POSITION":8,
						"NORMAL":9,
						"TEXCOORD_0":10
					},
					"indices":11
				}
			]
		},
		{
			"name":"fanBasemesh",
			"primitives":[
				{
					"attributes":{
						"POSITION":12,
						"NORMAL":13,
						"TEXCOORD_0":14
					},
					"indices":15
				}
			]
		},
		{
			"name":"fanAttachmentMesh",
			"primitives":[
				{
					"attributes":{
						"POSITION":16,
						"NORMAL":17,
						"TEXCOORD_0":18
					},
					"indices":19
				}
			]
		}
	],
	"accessors":[
		{
			"bufferView":0,
			"componentType":5126,
			"count":114,
			"max":[
				0.12074877321720123,
				-0.06029803305864334,
				0.12074878811836243
			],
			"min":[
				-0.12074877321720123,
				-0.12179642170667648,
				-0.12074878811836243
			],
			"type":"VEC3"
		},
		{
			"bufferView":1,
			"componentType":5126,
			"count":114,
			"type":"VEC3"
		},
		{
			"bufferView":2,
			"componentType":5126,
			"count":114,
			"type":"VEC2"
		},
		{
			"bufferView":3,
			"componentType":5123,
			"count":348,
			"type":"SCALAR"
		},
		{
			"bufferView":4,
			"componentType":5126,
			"count":304,
			"max":[
				0.18441078066825867,
				0.10569735616445541,
				-0.12105037271976471
			],
			"min":[
				-0.1844073086977005,
				-0.03878263756632805,
				-1.3667863607406616
			],
			"type":"VEC3"
		},
		{
			"bufferView":5,
			"componentType":5126,
			"count":304,
			"type":"VEC3"
		},
		{
			"bufferView":6,
			"componentType":5126,
			"count":304,
			"type":"VEC2"
		},
		{
			"bufferView":7,
			"componentType":5123,
			"count":1116,
			"type":"SCALAR"
		},
		{
			"bufferView":8,
			"componentType":5126,
			"count":72,
			"max":[
				0.1516716331243515,
				0.043283432722091675,
				0.1516716480255127
			],
			"min":[
				-0.1516716331243515,
				-0.044114645570516586,
				-0.1516716480255127
			],
			"type":"VEC3"
		},
		{
			"bufferView":9,
			"componentType":5126,
			"count":72,
			"type":"VEC3"
		},
		{
			"bufferView":10,
			"componentType":5126,
			"count":72,
			"type":"VEC2"
		},
		{
			"bufferView":11,
			"componentType":5123,
			"count":216,
			"type":"SCALAR"
		},
		{
			"bufferView":12,
			"componentType":5126,
			"count":290,
			"max":[
				0.15240000188350677,
				0.08818800002336502,
				0.15240001678466797
			],
			"min":[
				-0.15240000188350677,
				-0.06816805899143219,
				-0.15240001678466797
			],
			"type":"VEC3"
		},
		{
			"bufferView":13,
			"componentType":5126,
			"count":290,
			"type":"VEC3"
		},
		{
			"bufferView":14,
			"componentType":5126,
			"count":290,
			"type":"VEC2"
		},
		{
			"bufferView":15,
			"componentType":5123,
			"count":882,
			"type":"SCALAR"
		},
		{
			"bufferView":16,
			"componentType":5126,
			"count":26,
			"max":[
				0.04681079834699631,
				0.24786916375160217,
				0.04681079834699631
			],
			"min":[
				-0.04681079834699631,
				0.07149315625429153,
				-0.04681079834699631
			],
			"type":"VEC3"
		},
		{
			"bufferView":17,
			"componentType":5126,
			"count":26,
			"type":"VEC3"
		},
		{
			"bufferView":18,
			"componentType":5126,
			"count":26,
			"type":"VEC2"
		},
		{
			"bufferView":19,
			"componentType":5123,
			"count":72,
			"type":"SCALAR"
		}
	],
	"bufferViews":[
		{
			"buffer":0,
			"byteLength":1368,
			"byteOffset":0,
			"target":34962
		},
		{
			"buffer":0,
			"byteLength":1368,
			"byteOffset":1368,
			"target":34962
		},
		{
			"buffer":0,
			"byteLength":912,
			"byteOffset":2736,
			"target":34962
		},
		{
			"buffer":0,
			"byteLength":696,
			"byteOffset":3648,
			"target":34963
		},
		{
			"buffer":0,
			"byteLength":3648,
			"byteOffset":4344,
			"target":34962
		},
		{
			"buffer":0,
			"byteLength":3648,
			"byteOffset":7992,
			"target":34962
		},
		{
			"buffer":0,
			"byteLength":2432,
			"byteOffset":11640,
			"target":34962
		},
		{
			"buffer":0,
			"byteLength":2232,
			"byteOffset":14072,
			"target":34963
		},
		{
			"buffer":0,
			"byteLength":864,
			"byteOffset":16304,
			"target":34962
		},
		{
			"buffer":0,
			"byteLength":864,
			"byteOffset":17168,
			"target":34962
		},
		{
			"buffer":0,
			"byteLength":576,
			"byteOffset":18032,
			"target":34962
		},
		{
			"buffer":0,
			"byteLength":432,
			"byteOffset":18608,
			"target":34963
		},
		{
			"buffer":0,
			"byteLength":3480,
			"byteOffset":19040,
			"target":34962
		},
		{
			"buffer":0,
			"byteLength":3480,
			"byteOffset":22520,
			"target":34962
		},
		{
			"buffer":0,
			"byteLength":2320,
			"byteOffset":26000,
			"target":34962
		},
		{
			"buffer":0,
			"byteLength":1764,
			"byteOffset":28320,
			"target":34963
		},
		{
			"buffer":0,
			"byteLength":312,
			"byteOffset":30084,
			"target":34962
		},
		{
			"buffer":0,
			"byteLength":312,
			"byteOffset":30396,
			"target":34962
		},
		{
			"buffer":0,
			"byteLength":208,
			"byteOffset":30708,
			"target":34962
		},
		{
			"buffer":0,
			"byteLength":144,
			"byteOffset":30916,
			"target":34963
		}
	],
	"buffers":[
		{
			"byteLength":31060,
			"uri":"data:application/octet-stream;base64,"
		}
	]
}
